<svg width="1306" height="1306" viewBox="0 0 1306 1306" fill="none" xmlns="http://www.w3.org/2000/svg">
<path d="M515.235 918.385C491.102 918.385 469.985 913.257 451.885 903C434.388 893.347 425.64 876.152 425.64 851.415C425.64 835.728 429.562 818.232 437.405 798.925C448.265 810.992 458.22 819.438 467.27 824.265C476.923 829.092 487.18 831.505 498.04 831.505C528.207 831.505 550.53 814.612 565.01 780.825C580.093 747.038 587.635 709.632 587.635 668.605C587.635 591.982 558.977 553.67 501.66 553.67C485.37 553.67 471.493 554.575 460.03 556.385L385.82 903H255.5L378.58 327.42L512.52 309.32L469.985 510.23H475.415C498.342 510.23 519.76 502.99 539.67 488.51C559.58 473.427 575.568 454.723 587.635 432.4C599.702 409.473 605.735 386.547 605.735 363.62C605.735 335.867 595.78 312.638 575.87 293.935C556.563 275.232 526.698 265.88 486.275 265.88C449.472 265.88 413.573 274.327 378.58 291.22C343.587 307.51 314.928 332.247 292.605 365.43C270.885 398.613 260.025 438.735 260.025 485.795C260.025 508.118 262.137 523.805 266.36 532.855C270.583 541.302 272.695 546.128 272.695 547.335C240.718 547.335 216.585 541 200.295 528.33C184.005 515.057 175.86 493.638 175.86 464.075C175.86 423.048 191.245 384.133 222.015 347.33C252.785 310.527 293.51 280.963 344.19 258.64C394.87 235.713 448.265 224.25 504.375 224.25C546.608 224.25 582.205 230.887 611.165 244.16C640.125 257.433 661.543 274.93 675.42 296.65C689.9 318.37 697.14 342.202 697.14 368.145C697.14 395.898 689.297 422.747 673.61 448.69C657.923 474.633 635.6 495.75 606.64 512.04C642.84 518.677 669.688 535.57 687.185 562.72C704.682 589.267 713.43 620.942 713.43 657.745C713.43 692.135 706.793 729.542 693.52 769.965C680.85 810.388 659.432 845.382 629.265 874.945C599.702 903.905 561.692 918.385 515.235 918.385Z" fill="black"/>
<path d="M788.15 560.42L922.09 542.32L857.835 844.59C886.795 842.177 913.342 829.507 937.475 806.58C962.212 783.653 981.518 755.297 995.395 721.51C1009.27 687.723 1016.21 654.54 1016.21 621.96C1016.21 585.76 1006.86 556.197 988.155 533.27C969.452 510.343 941.397 498.88 903.99 498.88C830.383 498.88 772.765 518.187 731.135 556.8C690.108 595.413 669.595 649.412 669.595 718.795C669.595 741.118 671.707 756.805 675.93 765.855C680.153 774.302 682.265 779.128 682.265 780.335C649.685 780.335 625.25 773.698 608.96 760.425C593.273 746.548 585.43 723.923 585.43 692.55C585.43 653.937 601.117 616.53 632.49 580.33C664.467 543.527 705.192 513.963 754.665 491.64C804.138 468.713 853.612 457.25 903.085 457.25C950.748 457.25 990.568 465.395 1022.55 481.685C1054.52 497.975 1078.05 519.695 1093.14 546.845C1108.82 573.392 1116.67 602.955 1116.67 635.535C1116.67 674.752 1105.81 713.063 1084.09 750.47C1062.97 787.877 1032.5 818.647 992.68 842.78C952.86 866.31 907.007 878.075 855.12 878.075H850.595L795.39 1136H665.07L788.15 560.42Z" fill="#943F00"/>
<circle cx="653" cy="653" r="623" stroke="black" stroke-width="60"/>
</svg>
