<svg width="1428" height="290" viewBox="0 0 1428 290" fill="none" xmlns="http://www.w3.org/2000/svg">
<path d="M317.713 168V39.0938H352.649C362.024 39.0938 368.836 41.3887 373.084 45.9785C377.381 50.5195 379.529 58.0391 379.529 68.5371V74.1768C379.529 80.2314 378.431 85.1387 376.233 88.8984C374.085 92.6582 370.789 95.124 366.346 96.2959C372.156 97.7607 376.038 101.203 377.991 106.623C379.993 111.994 380.994 118.562 380.994 126.325C380.994 134.675 380.213 141.975 378.65 148.225C377.088 154.475 374.256 159.333 370.154 162.8C366.053 166.267 360.218 168 352.649 168H317.713ZM342.908 87.6533H348.182C350.574 87.6533 352.112 86.7256 352.796 84.8701C353.479 83.0146 353.821 80.793 353.821 78.2051V65.2412C353.821 61.0908 351.99 59.0156 348.328 59.0156H342.908V87.6533ZM345.472 145.295C352.161 145.295 355.506 142.121 355.506 135.773V119.66C355.506 115.998 354.944 113.117 353.821 111.018C352.747 108.869 350.696 107.795 347.669 107.795H342.908V145.148C343.982 145.246 344.837 145.295 345.472 145.295ZM386.801 168V39.0938H413.754V69.0498C415.17 64.9482 417.343 61.9209 420.272 59.9678C423.202 57.9658 426.62 56.9648 430.526 56.9648C438.144 56.9648 443.686 59.3574 447.152 64.1426C450.619 68.9277 452.353 75.3486 452.353 83.4053V168H425.839V85.0898C425.839 82.6973 425.326 80.7441 424.301 79.2305C423.324 77.7168 421.762 76.96 419.613 76.96C417.807 76.96 416.366 77.7412 415.292 79.3037C414.267 80.8662 413.754 82.7217 413.754 84.8701V168H386.801ZM480.425 169.172C474.321 169.172 469.658 167.756 466.436 164.924C463.262 162.092 461.089 158.21 459.917 153.278C458.745 148.347 458.159 142.756 458.159 136.506C458.159 129.816 458.818 124.348 460.137 120.1C461.455 115.803 463.701 112.287 466.875 109.553C470.098 106.818 474.517 104.499 480.132 102.595L496.392 97.0283V85.749C496.392 79.8408 494.463 76.8867 490.605 76.8867C487.09 76.8867 485.332 79.2793 485.332 84.0645V90.6562H459.844C459.795 90.2656 459.771 89.7773 459.771 89.1914C459.771 88.5566 459.771 87.8486 459.771 87.0674C459.771 76.1299 462.334 68.3906 467.461 63.8496C472.637 59.2598 480.815 56.9648 491.997 56.9648C497.856 56.9648 503.105 58.0146 507.744 60.1143C512.383 62.165 516.045 65.2168 518.73 69.2695C521.465 73.3223 522.832 78.3271 522.832 84.2842V168H496.758V154.963C495.488 159.553 493.389 163.068 490.459 165.51C487.529 167.951 484.185 169.172 480.425 169.172ZM490.752 148.811C492.9 148.811 494.365 147.907 495.146 146.101C495.928 144.294 496.318 142.341 496.318 140.241V109.626C492.705 111.091 489.897 112.946 487.896 115.192C485.894 117.39 484.893 120.637 484.893 124.934V139.069C484.893 145.563 486.846 148.811 490.752 148.811ZM530.689 168V58.1367H557.35V70.3682C558.619 66.1201 560.865 62.7998 564.088 60.4072C567.311 58.0146 571.363 56.8184 576.246 56.8184V78.7178C574.098 78.7178 571.534 78.9619 568.556 79.4502C565.577 79.8896 562.965 80.5244 560.719 81.3545C558.473 82.1357 557.35 83.0146 557.35 83.9912V168H530.689ZM600.437 169.172C594.333 169.172 589.67 167.756 586.447 164.924C583.273 162.092 581.101 158.21 579.929 153.278C578.757 148.347 578.171 142.756 578.171 136.506C578.171 129.816 578.83 124.348 580.148 120.1C581.467 115.803 583.713 112.287 586.887 109.553C590.109 106.818 594.528 104.499 600.144 102.595L616.403 97.0283V85.749C616.403 79.8408 614.475 76.8867 610.617 76.8867C607.102 76.8867 605.344 79.2793 605.344 84.0645V90.6562H579.855C579.807 90.2656 579.782 89.7773 579.782 89.1914C579.782 88.5566 579.782 87.8486 579.782 87.0674C579.782 76.1299 582.346 68.3906 587.473 63.8496C592.648 59.2598 600.827 56.9648 612.009 56.9648C617.868 56.9648 623.117 58.0146 627.756 60.1143C632.395 62.165 636.057 65.2168 638.742 69.2695C641.477 73.3223 642.844 78.3271 642.844 84.2842V168H616.77V154.963C615.5 159.553 613.4 163.068 610.471 165.51C607.541 167.951 604.196 169.172 600.437 169.172ZM610.764 148.811C612.912 148.811 614.377 147.907 615.158 146.101C615.939 144.294 616.33 142.341 616.33 140.241V109.626C612.717 111.091 609.909 112.946 607.907 115.192C605.905 117.39 604.904 120.637 604.904 124.934V139.069C604.904 145.563 606.857 148.811 610.764 148.811ZM673.26 169.172C666.18 169.172 661.395 167.683 658.904 164.704C656.463 161.677 655.242 157.062 655.242 150.861V82.3799H647.845V62.3848H655.242V39.0938H680.73V62.3848H688.128V82.3799H680.73V144.709C680.73 146.516 681.023 147.785 681.609 148.518C682.195 149.25 683.318 149.616 684.979 149.616C686.15 149.616 687.2 149.519 688.128 149.323V167.194C687.542 167.39 685.711 167.756 682.635 168.293C679.559 168.879 676.434 169.172 673.26 169.172Z" fill="#943F00"/>
<path d="M727.646 168V39.0938H761.704C768.833 39.0938 774.473 40.6807 778.623 43.8545C782.822 47.0283 785.825 51.5449 787.632 57.4043C789.438 63.2637 790.342 70.2461 790.342 78.3516C790.342 86.1641 789.585 92.9756 788.071 98.7861C786.558 104.548 783.848 109.016 779.941 112.189C776.084 115.363 770.591 116.95 763.462 116.95H752.988V168H727.646ZM752.988 93.8057H754.453C759.238 93.8057 762.168 92.4629 763.242 89.7773C764.316 87.0918 764.854 83.1367 764.854 77.9121C764.854 73.0293 764.316 69.2695 763.242 66.6328C762.217 63.9473 759.751 62.6045 755.845 62.6045H752.988V93.8057ZM795.855 168V39.0938H822.809V69.0498C824.225 64.9482 826.397 61.9209 829.327 59.9678C832.257 57.9658 835.675 56.9648 839.581 56.9648C847.198 56.9648 852.74 59.3574 856.207 64.1426C859.674 68.9277 861.407 75.3486 861.407 83.4053V168H834.894V85.0898C834.894 82.6973 834.381 80.7441 833.355 79.2305C832.379 77.7168 830.816 76.96 828.668 76.96C826.861 76.96 825.421 77.7412 824.347 79.3037C823.321 80.8662 822.809 82.7217 822.809 84.8701V168H795.855ZM889.479 169.172C883.376 169.172 878.713 167.756 875.49 164.924C872.316 162.092 870.144 158.21 868.972 153.278C867.8 148.347 867.214 142.756 867.214 136.506C867.214 129.816 867.873 124.348 869.191 120.1C870.51 115.803 872.756 112.287 875.93 109.553C879.152 106.818 883.571 104.499 889.187 102.595L905.446 97.0283V85.749C905.446 79.8408 903.518 76.8867 899.66 76.8867C896.145 76.8867 894.387 79.2793 894.387 84.0645V90.6562H868.898C868.85 90.2656 868.825 89.7773 868.825 89.1914C868.825 88.5566 868.825 87.8486 868.825 87.0674C868.825 76.1299 871.389 68.3906 876.516 63.8496C881.691 59.2598 889.87 56.9648 901.052 56.9648C906.911 56.9648 912.16 58.0146 916.799 60.1143C921.438 62.165 925.1 65.2168 927.785 69.2695C930.52 73.3223 931.887 78.3271 931.887 84.2842V168H905.812V154.963C904.543 159.553 902.443 163.068 899.514 165.51C896.584 167.951 893.239 169.172 889.479 169.172ZM899.807 148.811C901.955 148.811 903.42 147.907 904.201 146.101C904.982 144.294 905.373 142.341 905.373 140.241V109.626C901.76 111.091 898.952 112.946 896.95 115.192C894.948 117.39 893.947 120.637 893.947 124.934V139.069C893.947 145.563 895.9 148.811 899.807 148.811ZM939.744 168V58.1367H966.404V70.3682C967.674 66.1201 969.92 62.7998 973.143 60.4072C976.365 58.0146 980.418 56.8184 985.301 56.8184V78.7178C983.152 78.7178 980.589 78.9619 977.61 79.4502C974.632 79.8896 972.02 80.5244 969.773 81.3545C967.527 82.1357 966.404 83.0146 966.404 83.9912V168H939.744ZM989.496 168V58.1367H1015.13V70.8809C1016.3 66.3887 1018.3 62.9463 1021.14 60.5537C1023.97 58.1611 1028.12 56.9648 1033.59 56.9648C1037.98 56.9648 1041.72 57.9902 1044.79 60.041C1047.92 62.043 1050.12 64.7041 1051.39 68.0244C1053.39 64.4111 1055.73 61.6768 1058.42 59.8213C1061.15 57.917 1065.03 56.9648 1070.06 56.9648C1076.17 56.9648 1080.85 58.2832 1084.12 60.9199C1087.45 63.5078 1089.74 67.1211 1091.01 71.7598C1092.33 76.3496 1092.99 81.6719 1092.99 87.7266V168H1066.84V87.2871C1066.84 80.207 1065.03 76.667 1061.42 76.667C1059.52 76.667 1058.05 77.3262 1057.03 78.6445C1056 79.9141 1055.29 81.501 1054.9 83.4053C1054.51 85.3096 1054.32 87.2139 1054.32 89.1182V168H1028.17V87.2871C1028.17 84.9922 1027.88 82.6973 1027.29 80.4023C1026.75 78.1074 1025.34 76.96 1023.04 76.96C1021.09 76.96 1019.57 77.668 1018.5 79.084C1017.43 80.5 1016.69 82.2578 1016.3 84.3574C1015.91 86.4082 1015.72 88.4346 1015.72 90.4365V168H989.496ZM1121.06 169.172C1114.96 169.172 1110.29 167.756 1107.07 164.924C1103.9 162.092 1101.72 158.21 1100.55 153.278C1099.38 148.347 1098.79 142.756 1098.79 136.506C1098.79 129.816 1099.45 124.348 1100.77 120.1C1102.09 115.803 1104.34 112.287 1107.51 109.553C1110.73 106.818 1115.15 104.499 1120.77 102.595L1137.03 97.0283V85.749C1137.03 79.8408 1135.1 76.8867 1131.24 76.8867C1127.72 76.8867 1125.97 79.2793 1125.97 84.0645V90.6562H1100.48C1100.43 90.2656 1100.41 89.7773 1100.41 89.1914C1100.41 88.5566 1100.41 87.8486 1100.41 87.0674C1100.41 76.1299 1102.97 68.3906 1108.1 63.8496C1113.27 59.2598 1121.45 56.9648 1132.63 56.9648C1138.49 56.9648 1143.74 58.0146 1148.38 60.1143C1153.02 62.165 1156.68 65.2168 1159.37 69.2695C1162.1 73.3223 1163.47 78.3271 1163.47 84.2842V168H1137.39V154.963C1136.12 159.553 1134.02 163.068 1131.09 165.51C1128.16 167.951 1124.82 169.172 1121.06 169.172ZM1131.39 148.811C1133.54 148.811 1135 147.907 1135.78 146.101C1136.56 144.294 1136.95 142.341 1136.95 140.241V109.626C1133.34 111.091 1130.53 112.946 1128.53 115.192C1126.53 117.39 1125.53 120.637 1125.53 124.934V139.069C1125.53 145.563 1127.48 148.811 1131.39 148.811ZM1193.88 169.172C1186.8 169.172 1182.02 167.683 1179.53 164.704C1177.09 161.677 1175.87 157.062 1175.87 150.861V82.3799H1168.47V62.3848H1175.87V39.0938H1201.35V62.3848H1208.75V82.3799H1201.35V144.709C1201.35 146.516 1201.65 147.785 1202.23 148.518C1202.82 149.25 1203.94 149.616 1205.6 149.616C1206.77 149.616 1207.82 149.519 1208.75 149.323V167.194C1208.17 167.39 1206.33 167.756 1203.26 168.293C1200.18 168.879 1197.06 169.172 1193.88 169.172ZM1245.69 169.172C1237.87 169.172 1231.65 167.707 1227.01 164.777C1222.37 161.848 1219.05 157.624 1217.05 152.106C1215.05 146.589 1214.04 139.948 1214.04 132.185V88.0195C1214.04 77.8145 1216.97 70.0996 1222.83 64.875C1228.69 59.6016 1236.75 56.9648 1247 56.9648C1268.1 56.9648 1278.64 67.3164 1278.64 88.0195V96.0029C1278.64 105.671 1278.55 112.165 1278.35 115.485H1240.27V136.726C1240.27 138.679 1240.39 140.607 1240.63 142.512C1240.88 144.367 1241.41 145.905 1242.24 147.126C1243.12 148.347 1244.51 148.957 1246.42 148.957C1249.15 148.957 1250.86 147.785 1251.54 145.441C1252.23 143.049 1252.57 139.948 1252.57 136.14V125.593H1278.64V131.818C1278.64 140.021 1277.62 146.906 1275.57 152.473C1273.57 157.99 1270.15 162.165 1265.31 164.997C1260.53 167.78 1253.99 169.172 1245.69 169.172ZM1240.12 102.448H1252.57V87.6533C1252.57 83.6982 1252.08 80.8662 1251.11 79.1572C1250.13 77.3994 1248.66 76.5205 1246.71 76.5205C1244.61 76.5205 1242.98 77.3506 1241.8 79.0107C1240.68 80.6709 1240.12 83.5518 1240.12 87.6533V102.448ZM1318.95 169.172C1306.64 169.172 1297.9 166.022 1292.73 159.724C1287.6 153.425 1285.04 144.172 1285.04 131.965V98.127C1285.04 88.9473 1286.01 81.3057 1287.97 75.2021C1289.92 69.0986 1293.34 64.5332 1298.22 61.5059C1303.1 58.4785 1309.89 56.9648 1318.58 56.9648C1324.64 56.9648 1330.06 58.0391 1334.84 60.1875C1339.68 62.3359 1343.48 65.4854 1346.27 69.6357C1349.05 73.7861 1350.44 78.8643 1350.44 84.8701V101.643H1323.71V86.2617C1323.71 83.7227 1323.34 81.5986 1322.61 79.8896C1321.88 78.1318 1320.29 77.2529 1317.85 77.2529C1313.55 77.2529 1311.4 80.3047 1311.4 86.4082V139.655C1311.4 141.901 1311.89 143.977 1312.87 145.881C1313.85 147.736 1315.46 148.664 1317.7 148.664C1320 148.664 1321.58 147.761 1322.46 145.954C1323.39 144.099 1323.86 141.95 1323.86 139.509V121.052H1350.44V140.241C1350.44 146.296 1349.08 151.496 1346.34 155.842C1343.66 160.139 1339.94 163.435 1335.21 165.729C1330.47 168.024 1325.05 169.172 1318.95 169.172ZM1357.35 168V39.0938H1384.3V69.0498C1385.72 64.9482 1387.89 61.9209 1390.82 59.9678C1393.75 57.9658 1397.17 56.9648 1401.07 56.9648C1408.69 56.9648 1414.23 59.3574 1417.7 64.1426C1421.17 68.9277 1422.9 75.3486 1422.9 83.4053V168H1396.39V85.0898C1396.39 82.6973 1395.87 80.7441 1394.85 79.2305C1393.87 77.7168 1392.31 76.96 1390.16 76.96C1388.35 76.96 1386.91 77.7412 1385.84 79.3037C1384.81 80.8662 1384.3 82.7217 1384.3 84.8701V168H1357.35Z" fill="black"/>
<path d="M332.485 223.919H321.797V217.178H332.485C334.137 217.178 335.482 216.909 336.519 216.371C337.556 215.814 338.314 215.046 338.795 214.066C339.275 213.087 339.515 211.982 339.515 210.753C339.515 209.505 339.275 208.343 338.795 207.267C338.314 206.192 337.556 205.328 336.519 204.675C335.482 204.022 334.137 203.695 332.485 203.695H324.794V238.87H316.151V196.925H332.485C335.77 196.925 338.583 197.52 340.926 198.711C343.289 199.883 345.094 201.506 346.342 203.58C347.591 205.654 348.215 208.026 348.215 210.696C348.215 213.404 347.591 215.747 346.342 217.725C345.094 219.703 343.289 221.23 340.926 222.305C338.583 223.381 335.77 223.919 332.485 223.919ZM360.575 194.62V238.87H352.278V194.62H360.575ZM359.394 222.19H357.118C357.137 220.02 357.425 218.023 357.982 216.198C358.539 214.354 359.336 212.76 360.373 211.416C361.41 210.052 362.649 208.996 364.09 208.247C365.549 207.498 367.163 207.123 368.929 207.123C370.466 207.123 371.858 207.344 373.107 207.786C374.374 208.208 375.459 208.9 376.362 209.86C377.284 210.801 377.995 212.04 378.494 213.576C378.993 215.113 379.243 216.976 379.243 219.165V238.87H370.888V219.108C370.888 217.725 370.687 216.64 370.284 215.852C369.899 215.046 369.333 214.479 368.584 214.153C367.854 213.807 366.951 213.634 365.876 213.634C364.685 213.634 363.667 213.855 362.822 214.297C361.996 214.738 361.334 215.353 360.834 216.14C360.335 216.909 359.97 217.811 359.74 218.848C359.509 219.886 359.394 220.999 359.394 222.19ZM401.196 231.841V217.955C401.196 216.957 401.033 216.102 400.707 215.391C400.38 214.662 399.871 214.095 399.18 213.692C398.507 213.288 397.634 213.087 396.558 213.087C395.636 213.087 394.839 213.25 394.167 213.576C393.495 213.884 392.976 214.335 392.611 214.93C392.246 215.507 392.064 216.188 392.064 216.976H383.767C383.767 215.651 384.074 214.393 384.689 213.202C385.304 212.011 386.197 210.964 387.368 210.062C388.54 209.14 389.932 208.42 391.545 207.901C393.178 207.383 395.002 207.123 397.019 207.123C399.439 207.123 401.59 207.527 403.472 208.333C405.354 209.14 406.833 210.35 407.909 211.963C409.003 213.576 409.551 215.593 409.551 218.013V231.351C409.551 233.061 409.656 234.463 409.868 235.557C410.079 236.633 410.386 237.574 410.79 238.381V238.87H402.406C402.003 238.025 401.696 236.969 401.484 235.701C401.292 234.415 401.196 233.128 401.196 231.841ZM402.291 219.886L402.349 224.581H397.71C396.616 224.581 395.665 224.706 394.858 224.956C394.052 225.206 393.389 225.561 392.871 226.022C392.352 226.464 391.968 226.982 391.718 227.577C391.488 228.173 391.373 228.826 391.373 229.536C391.373 230.247 391.536 230.89 391.862 231.467C392.189 232.024 392.659 232.465 393.274 232.792C393.888 233.099 394.609 233.253 395.435 233.253C396.683 233.253 397.768 233.003 398.69 232.504C399.612 232.004 400.322 231.39 400.822 230.66C401.34 229.93 401.609 229.239 401.628 228.586L403.818 232.1C403.511 232.888 403.088 233.704 402.55 234.549C402.032 235.394 401.369 236.191 400.562 236.94C399.756 237.67 398.786 238.275 397.653 238.755C396.52 239.216 395.175 239.447 393.62 239.447C391.641 239.447 389.846 239.053 388.232 238.265C386.638 237.459 385.371 236.354 384.43 234.952C383.508 233.531 383.047 231.918 383.047 230.113C383.047 228.48 383.354 227.03 383.969 225.763C384.583 224.495 385.486 223.429 386.677 222.565C387.887 221.681 389.394 221.019 391.2 220.577C393.005 220.116 395.098 219.886 397.48 219.886H402.291ZM423.063 214.498V238.87H414.766V207.7H422.573L423.063 214.498ZM432.455 207.498L432.311 215.19C431.907 215.132 431.418 215.084 430.841 215.046C430.285 214.988 429.776 214.959 429.315 214.959C428.143 214.959 427.125 215.113 426.261 215.42C425.416 215.708 424.705 216.14 424.129 216.717C423.572 217.293 423.15 217.994 422.861 218.82C422.593 219.645 422.439 220.587 422.401 221.643L420.73 221.124C420.73 219.108 420.931 217.254 421.335 215.564C421.738 213.855 422.324 212.367 423.092 211.099C423.879 209.831 424.84 208.852 425.973 208.16C427.106 207.469 428.402 207.123 429.862 207.123C430.323 207.123 430.793 207.162 431.274 207.239C431.754 207.296 432.147 207.383 432.455 207.498ZM443.49 214.153V238.87H435.164V207.7H442.971L443.49 214.153ZM442.337 222.19H440.033C440.033 220.02 440.292 218.023 440.81 216.198C441.348 214.354 442.126 212.76 443.144 211.416C444.181 210.052 445.458 208.996 446.975 208.247C448.493 207.498 450.25 207.123 452.247 207.123C453.63 207.123 454.898 207.335 456.05 207.757C457.202 208.16 458.192 208.804 459.017 209.687C459.862 210.552 460.515 211.685 460.976 213.087C461.437 214.47 461.668 216.131 461.668 218.071V238.87H453.371V218.992C453.371 217.571 453.179 216.477 452.795 215.708C452.411 214.94 451.863 214.402 451.153 214.095C450.461 213.788 449.626 213.634 448.646 213.634C447.571 213.634 446.63 213.855 445.823 214.297C445.036 214.738 444.383 215.353 443.864 216.14C443.346 216.909 442.961 217.811 442.712 218.848C442.462 219.886 442.337 220.999 442.337 222.19ZM460.89 221.24L457.923 221.614C457.923 219.578 458.172 217.687 458.672 215.939C459.19 214.191 459.949 212.655 460.948 211.329C461.966 210.004 463.223 208.977 464.722 208.247C466.22 207.498 467.948 207.123 469.907 207.123C471.405 207.123 472.769 207.344 473.998 207.786C475.227 208.208 476.274 208.89 477.138 209.831C478.021 210.753 478.694 211.963 479.155 213.461C479.635 214.959 479.875 216.793 479.875 218.964V238.87H471.549V218.964C471.549 217.523 471.357 216.429 470.973 215.68C470.608 214.911 470.07 214.383 469.36 214.095C468.668 213.788 467.842 213.634 466.882 213.634C465.883 213.634 465.01 213.836 464.261 214.239C463.512 214.623 462.887 215.161 462.388 215.852C461.889 216.544 461.514 217.35 461.264 218.272C461.015 219.175 460.89 220.164 460.89 221.24ZM501.943 231.841V217.955C501.943 216.957 501.78 216.102 501.454 215.391C501.127 214.662 500.618 214.095 499.927 213.692C499.255 213.288 498.381 213.087 497.305 213.087C496.383 213.087 495.586 213.25 494.914 213.576C494.242 213.884 493.723 214.335 493.358 214.93C492.994 215.507 492.811 216.188 492.811 216.976H484.514C484.514 215.651 484.821 214.393 485.436 213.202C486.051 212.011 486.944 210.964 488.115 210.062C489.287 209.14 490.679 208.42 492.293 207.901C493.925 207.383 495.75 207.123 497.766 207.123C500.186 207.123 502.337 207.527 504.219 208.333C506.101 209.14 507.58 210.35 508.656 211.963C509.751 213.576 510.298 215.593 510.298 218.013V231.351C510.298 233.061 510.404 234.463 510.615 235.557C510.826 236.633 511.133 237.574 511.537 238.381V238.87H503.153C502.75 238.025 502.443 236.969 502.231 235.701C502.039 234.415 501.943 233.128 501.943 231.841ZM503.038 219.886L503.096 224.581H498.458C497.363 224.581 496.412 224.706 495.605 224.956C494.799 225.206 494.136 225.561 493.618 226.022C493.099 226.464 492.715 226.982 492.465 227.577C492.235 228.173 492.12 228.826 492.12 229.536C492.12 230.247 492.283 230.89 492.609 231.467C492.936 232.024 493.406 232.465 494.021 232.792C494.636 233.099 495.356 233.253 496.182 233.253C497.43 233.253 498.515 233.003 499.437 232.504C500.359 232.004 501.07 231.39 501.569 230.66C502.087 229.93 502.356 229.239 502.376 228.586L504.565 232.1C504.258 232.888 503.835 233.704 503.297 234.549C502.779 235.394 502.116 236.191 501.31 236.94C500.503 237.67 499.533 238.275 498.4 238.755C497.267 239.216 495.922 239.447 494.367 239.447C492.389 239.447 490.593 239.053 488.98 238.265C487.385 237.459 486.118 236.354 485.177 234.952C484.255 233.531 483.794 231.918 483.794 230.113C483.794 228.48 484.101 227.03 484.716 225.763C485.33 224.495 486.233 223.429 487.424 222.565C488.634 221.681 490.141 221.019 491.947 220.577C493.752 220.116 495.846 219.886 498.227 219.886H503.038ZM528.391 232.965C529.409 232.965 530.311 232.773 531.099 232.388C531.886 231.985 532.501 231.428 532.943 230.718C533.404 229.988 533.644 229.133 533.663 228.154H541.47C541.451 230.343 540.865 232.292 539.713 234.002C538.56 235.692 537.014 237.027 535.074 238.006C533.135 238.966 530.964 239.447 528.564 239.447C526.144 239.447 524.031 239.043 522.226 238.237C520.44 237.43 518.951 236.316 517.76 234.895C516.57 233.454 515.677 231.784 515.081 229.882C514.486 227.962 514.188 225.907 514.188 223.717V222.882C514.188 220.673 514.486 218.618 515.081 216.717C515.677 214.796 516.57 213.125 517.76 211.704C518.951 210.263 520.44 209.14 522.226 208.333C524.012 207.527 526.105 207.123 528.506 207.123C531.06 207.123 533.298 207.613 535.218 208.593C537.158 209.572 538.675 210.974 539.77 212.799C540.884 214.604 541.451 216.745 541.47 219.223H533.663C533.644 218.186 533.423 217.245 533 216.4C532.597 215.555 532.002 214.882 531.214 214.383C530.446 213.865 529.495 213.605 528.362 213.605C527.152 213.605 526.163 213.865 525.395 214.383C524.627 214.882 524.031 215.574 523.609 216.457C523.186 217.322 522.888 218.311 522.716 219.425C522.562 220.519 522.485 221.672 522.485 222.882V223.717C522.485 224.927 522.562 226.089 522.716 227.203C522.869 228.317 523.157 229.306 523.58 230.17C524.022 231.034 524.627 231.716 525.395 232.216C526.163 232.715 527.162 232.965 528.391 232.965ZM559.448 239.447C557.028 239.447 554.857 239.062 552.937 238.294C551.016 237.507 549.384 236.422 548.039 235.039C546.714 233.656 545.696 232.052 544.986 230.228C544.275 228.384 543.92 226.425 543.92 224.351V223.199C543.92 220.836 544.256 218.676 544.928 216.717C545.6 214.758 546.561 213.058 547.809 211.617C549.077 210.177 550.613 209.073 552.418 208.305C554.224 207.517 556.259 207.123 558.526 207.123C560.734 207.123 562.693 207.488 564.403 208.218C566.112 208.948 567.543 209.985 568.695 211.329C569.867 212.674 570.75 214.287 571.346 216.169C571.941 218.032 572.239 220.106 572.239 222.392V225.849H547.463V220.318H564.086V219.684C564.086 218.532 563.875 217.504 563.452 216.601C563.049 215.68 562.434 214.95 561.608 214.412C560.782 213.874 559.726 213.605 558.439 213.605C557.345 213.605 556.404 213.845 555.616 214.326C554.829 214.806 554.185 215.478 553.686 216.342C553.206 217.206 552.841 218.224 552.591 219.396C552.361 220.548 552.245 221.816 552.245 223.199V224.351C552.245 225.599 552.418 226.752 552.764 227.808C553.129 228.864 553.638 229.777 554.291 230.545C554.963 231.313 555.77 231.908 556.711 232.331C557.671 232.753 558.756 232.965 559.966 232.965C561.464 232.965 562.857 232.677 564.143 232.1C565.449 231.505 566.573 230.612 567.514 229.421L571.547 233.8C570.894 234.741 570.001 235.644 568.868 236.508C567.754 237.372 566.41 238.083 564.835 238.64C563.26 239.178 561.464 239.447 559.448 239.447ZM594.221 231.409V207.7H602.518V238.87H594.711L594.221 231.409ZM595.143 225.013L597.591 224.956C597.591 227.03 597.351 228.96 596.871 230.746C596.391 232.513 595.671 234.05 594.711 235.356C593.75 236.643 592.54 237.651 591.081 238.381C589.621 239.091 587.902 239.447 585.924 239.447C584.407 239.447 583.005 239.235 581.718 238.813C580.45 238.371 579.356 237.689 578.434 236.767C577.531 235.826 576.82 234.626 576.302 233.166C575.802 231.687 575.553 229.911 575.553 227.837V207.7H583.85V227.894C583.85 228.816 583.955 229.594 584.167 230.228C584.397 230.862 584.714 231.38 585.117 231.784C585.521 232.187 585.991 232.475 586.529 232.648C587.086 232.821 587.7 232.907 588.373 232.907C590.082 232.907 591.426 232.561 592.406 231.87C593.405 231.179 594.106 230.237 594.509 229.047C594.931 227.837 595.143 226.492 595.143 225.013ZM622.944 207.7V213.576H604.795V207.7H622.944ZM609.289 200.008H617.586V229.479C617.586 230.381 617.701 231.073 617.931 231.553C618.181 232.033 618.546 232.369 619.026 232.561C619.506 232.734 620.111 232.821 620.841 232.821C621.36 232.821 621.821 232.801 622.224 232.763C622.646 232.705 623.002 232.648 623.29 232.59L623.319 238.698C622.608 238.928 621.84 239.11 621.014 239.245C620.188 239.379 619.276 239.447 618.277 239.447C616.453 239.447 614.858 239.149 613.495 238.554C612.15 237.939 611.113 236.959 610.384 235.615C609.654 234.271 609.289 232.504 609.289 230.314V200.008ZM635.247 207.7V238.87H626.921V207.7H635.247ZM626.402 199.576C626.402 198.366 626.825 197.367 627.67 196.579C628.515 195.792 629.648 195.398 631.069 195.398C632.471 195.398 633.595 195.792 634.44 196.579C635.304 197.367 635.736 198.366 635.736 199.576C635.736 200.785 635.304 201.784 634.44 202.572C633.595 203.359 632.471 203.753 631.069 203.753C629.648 203.753 628.515 203.359 627.67 202.572C626.825 201.784 626.402 200.785 626.402 199.576ZM653.8 232.965C654.818 232.965 655.721 232.773 656.508 232.388C657.296 231.985 657.91 231.428 658.352 230.718C658.813 229.988 659.053 229.133 659.072 228.154H666.879C666.86 230.343 666.275 232.292 665.122 234.002C663.97 235.692 662.424 237.027 660.484 238.006C658.544 238.966 656.374 239.447 653.973 239.447C651.553 239.447 649.441 239.043 647.635 238.237C645.849 237.43 644.361 236.316 643.17 234.895C641.979 233.454 641.086 231.784 640.491 229.882C639.895 227.962 639.598 225.907 639.598 223.717V222.882C639.598 220.673 639.895 218.618 640.491 216.717C641.086 214.796 641.979 213.125 643.17 211.704C644.361 210.263 645.849 209.14 647.635 208.333C649.421 207.527 651.515 207.123 653.916 207.123C656.47 207.123 658.707 207.613 660.628 208.593C662.568 209.572 664.085 210.974 665.18 212.799C666.294 214.604 666.86 216.745 666.879 219.223H659.072C659.053 218.186 658.832 217.245 658.41 216.4C658.006 215.555 657.411 214.882 656.624 214.383C655.855 213.865 654.905 213.605 653.772 213.605C652.562 213.605 651.573 213.865 650.804 214.383C650.036 214.882 649.441 215.574 649.018 216.457C648.596 217.322 648.298 218.311 648.125 219.425C647.971 220.519 647.895 221.672 647.895 222.882V223.717C647.895 224.927 647.971 226.089 648.125 227.203C648.279 228.317 648.567 229.306 648.989 230.17C649.431 231.034 650.036 231.716 650.804 232.216C651.573 232.715 652.571 232.965 653.8 232.965ZM687.335 231.841V217.955C687.335 216.957 687.171 216.102 686.845 215.391C686.519 214.662 686.01 214.095 685.318 213.692C684.646 213.288 683.772 213.087 682.697 213.087C681.775 213.087 680.978 213.25 680.305 213.576C679.633 213.884 679.115 214.335 678.75 214.93C678.385 215.507 678.202 216.188 678.202 216.976H669.906C669.906 215.651 670.213 214.393 670.827 213.202C671.442 212.011 672.335 210.964 673.507 210.062C674.678 209.14 676.071 208.42 677.684 207.901C679.316 207.383 681.141 207.123 683.158 207.123C685.577 207.123 687.728 207.527 689.611 208.333C691.493 209.14 692.972 210.35 694.047 211.963C695.142 213.576 695.689 215.593 695.689 218.013V231.351C695.689 233.061 695.795 234.463 696.006 235.557C696.217 236.633 696.525 237.574 696.928 238.381V238.87H688.545C688.141 238.025 687.834 236.969 687.623 235.701C687.431 234.415 687.335 233.128 687.335 231.841ZM688.429 219.886L688.487 224.581H683.849C682.754 224.581 681.803 224.706 680.997 224.956C680.19 225.206 679.528 225.561 679.009 226.022C678.491 226.464 678.106 226.982 677.857 227.577C677.626 228.173 677.511 228.826 677.511 229.536C677.511 230.247 677.674 230.89 678.001 231.467C678.327 232.024 678.798 232.465 679.412 232.792C680.027 233.099 680.747 233.253 681.573 233.253C682.821 233.253 683.907 233.003 684.828 232.504C685.75 232.004 686.461 231.39 686.96 230.66C687.479 229.93 687.748 229.239 687.767 228.586L689.956 232.1C689.649 232.888 689.227 233.704 688.689 234.549C688.17 235.394 687.508 236.191 686.701 236.94C685.894 237.67 684.924 238.275 683.791 238.755C682.658 239.216 681.314 239.447 679.758 239.447C677.78 239.447 675.984 239.053 674.371 238.265C672.777 237.459 671.509 236.354 670.568 234.952C669.646 233.531 669.185 231.918 669.185 230.113C669.185 228.48 669.493 227.03 670.107 225.763C670.722 224.495 671.624 223.429 672.815 222.565C674.025 221.681 675.533 221.019 677.338 220.577C679.144 220.116 681.237 219.886 683.618 219.886H688.429ZM709.663 194.62V238.87H701.337V194.62H709.663ZM732.192 230.257C732.192 229.661 732.019 229.124 731.673 228.643C731.328 228.163 730.684 227.721 729.743 227.318C728.821 226.896 727.487 226.512 725.739 226.166C724.164 225.82 722.695 225.388 721.331 224.869C719.987 224.332 718.815 223.688 717.817 222.939C716.837 222.19 716.069 221.307 715.512 220.289C714.955 219.252 714.676 218.071 714.676 216.745C714.676 215.439 714.955 214.21 715.512 213.058C716.088 211.906 716.904 210.888 717.961 210.004C719.036 209.102 720.342 208.401 721.879 207.901C723.434 207.383 725.182 207.123 727.122 207.123C729.83 207.123 732.154 207.555 734.093 208.42C736.052 209.284 737.55 210.475 738.588 211.992C739.644 213.49 740.172 215.199 740.172 217.12H731.875C731.875 216.313 731.702 215.593 731.357 214.959C731.03 214.306 730.512 213.797 729.801 213.432C729.11 213.048 728.207 212.856 727.093 212.856C726.171 212.856 725.374 213.02 724.702 213.346C724.03 213.653 723.511 214.076 723.146 214.614C722.8 215.132 722.628 215.708 722.628 216.342C722.628 216.822 722.724 217.254 722.916 217.638C723.127 218.003 723.463 218.339 723.924 218.647C724.385 218.954 724.98 219.242 725.71 219.511C726.459 219.761 727.381 219.991 728.476 220.202C730.723 220.663 732.73 221.268 734.497 222.017C736.264 222.747 737.666 223.746 738.703 225.013C739.74 226.262 740.258 227.904 740.258 229.94C740.258 231.323 739.951 232.59 739.337 233.742C738.722 234.895 737.839 235.903 736.686 236.767C735.534 237.612 734.151 238.275 732.538 238.755C730.944 239.216 729.148 239.447 727.151 239.447C724.25 239.447 721.792 238.928 719.776 237.891C717.778 236.854 716.261 235.538 715.224 233.944C714.206 232.331 713.697 230.679 713.697 228.989H721.562C721.6 230.122 721.888 231.034 722.426 231.726C722.983 232.417 723.684 232.917 724.529 233.224C725.393 233.531 726.325 233.685 727.323 233.685C728.399 233.685 729.292 233.541 730.003 233.253C730.713 232.945 731.251 232.542 731.616 232.043C732 231.524 732.192 230.929 732.192 230.257ZM762.443 196.925H769.761L780.535 227.721L791.31 196.925H798.627L783.474 238.87H777.597L762.443 196.925ZM758.497 196.925H765.785L767.11 226.944V238.87H758.497V196.925ZM795.285 196.925H802.603V238.87H793.96V226.944L795.285 196.925ZM825.305 231.841V217.955C825.305 216.957 825.142 216.102 824.815 215.391C824.489 214.662 823.98 214.095 823.288 213.692C822.616 213.288 821.742 213.087 820.667 213.087C819.745 213.087 818.948 213.25 818.276 213.576C817.603 213.884 817.085 214.335 816.72 214.93C816.355 215.507 816.173 216.188 816.173 216.976H807.876C807.876 215.651 808.183 214.393 808.798 213.202C809.412 212.011 810.305 210.964 811.477 210.062C812.648 209.14 814.041 208.42 815.654 207.901C817.286 207.383 819.111 207.123 821.128 207.123C823.548 207.123 825.699 207.527 827.581 208.333C829.463 209.14 830.942 210.35 832.017 211.963C833.112 213.576 833.659 215.593 833.659 218.013V231.351C833.659 233.061 833.765 234.463 833.976 235.557C834.188 236.633 834.495 237.574 834.898 238.381V238.87H826.515C826.112 238.025 825.804 236.969 825.593 235.701C825.401 234.415 825.305 233.128 825.305 231.841ZM826.4 219.886L826.457 224.581H821.819C820.724 224.581 819.774 224.706 818.967 224.956C818.16 225.206 817.498 225.561 816.979 226.022C816.461 226.464 816.077 226.982 815.827 227.577C815.596 228.173 815.481 228.826 815.481 229.536C815.481 230.247 815.644 230.89 815.971 231.467C816.297 232.024 816.768 232.465 817.383 232.792C817.997 233.099 818.717 233.253 819.543 233.253C820.792 233.253 821.877 233.003 822.799 232.504C823.72 232.004 824.431 231.39 824.93 230.66C825.449 229.93 825.718 229.239 825.737 228.586L827.926 232.1C827.619 232.888 827.197 233.704 826.659 234.549C826.14 235.394 825.478 236.191 824.671 236.94C823.864 237.67 822.895 238.275 821.761 238.755C820.628 239.216 819.284 239.447 817.728 239.447C815.75 239.447 813.954 239.053 812.341 238.265C810.747 237.459 809.479 236.354 808.538 234.952C807.616 233.531 807.155 231.918 807.155 230.113C807.155 228.48 807.463 227.03 808.077 225.763C808.692 224.495 809.595 223.429 810.785 222.565C811.995 221.681 813.503 221.019 815.308 220.577C817.114 220.116 819.207 219.886 821.589 219.886H826.4ZM851.752 232.965C852.77 232.965 853.673 232.773 854.46 232.388C855.248 231.985 855.862 231.428 856.304 230.718C856.765 229.988 857.005 229.133 857.024 228.154H864.831C864.812 230.343 864.226 232.292 863.074 234.002C861.922 235.692 860.376 237.027 858.436 238.006C856.496 238.966 854.326 239.447 851.925 239.447C849.505 239.447 847.393 239.043 845.587 238.237C843.801 237.43 842.313 236.316 841.122 234.895C839.931 233.454 839.038 231.784 838.443 229.882C837.847 227.962 837.55 225.907 837.55 223.717V222.882C837.55 220.673 837.847 218.618 838.443 216.717C839.038 214.796 839.931 213.125 841.122 211.704C842.313 210.263 843.801 209.14 845.587 208.333C847.373 207.527 849.467 207.123 851.868 207.123C854.422 207.123 856.659 207.613 858.58 208.593C860.52 209.572 862.037 210.974 863.132 212.799C864.246 214.604 864.812 216.745 864.831 219.223H857.024C857.005 218.186 856.784 217.245 856.362 216.4C855.958 215.555 855.363 214.882 854.576 214.383C853.807 213.865 852.857 213.605 851.724 213.605C850.514 213.605 849.524 213.865 848.756 214.383C847.988 214.882 847.393 215.574 846.97 216.457C846.548 217.322 846.25 218.311 846.077 219.425C845.923 220.519 845.847 221.672 845.847 222.882V223.717C845.847 224.927 845.923 226.089 846.077 227.203C846.231 228.317 846.519 229.306 846.941 230.17C847.383 231.034 847.988 231.716 848.756 232.216C849.524 232.715 850.523 232.965 851.752 232.965ZM876.558 194.62V238.87H868.261V194.62H876.558ZM875.377 222.19H873.101C873.12 220.02 873.408 218.023 873.965 216.198C874.522 214.354 875.319 212.76 876.356 211.416C877.393 210.052 878.632 208.996 880.072 208.247C881.532 207.498 883.145 207.123 884.912 207.123C886.449 207.123 887.841 207.344 889.089 207.786C890.357 208.208 891.442 208.9 892.345 209.86C893.267 210.801 893.977 212.04 894.477 213.576C894.976 215.113 895.226 216.976 895.226 219.165V238.87H886.871V219.108C886.871 217.725 886.669 216.64 886.266 215.852C885.882 215.046 885.315 214.479 884.566 214.153C883.837 213.807 882.934 213.634 881.858 213.634C880.668 213.634 879.65 213.855 878.805 214.297C877.979 214.738 877.316 215.353 876.817 216.14C876.318 216.909 875.953 217.811 875.722 218.848C875.492 219.886 875.377 220.999 875.377 222.19ZM909.113 207.7V238.87H900.787V207.7H909.113ZM900.268 199.576C900.268 198.366 900.691 197.367 901.536 196.579C902.381 195.792 903.514 195.398 904.935 195.398C906.337 195.398 907.461 195.792 908.306 196.579C909.17 197.367 909.602 198.366 909.602 199.576C909.602 200.785 909.17 201.784 908.306 202.572C907.461 203.359 906.337 203.753 904.935 203.753C903.514 203.753 902.381 203.359 901.536 202.572C900.691 201.784 900.268 200.785 900.268 199.576ZM922.913 214.354V238.87H914.616V207.7H922.394L922.913 214.354ZM921.703 222.19H919.456C919.456 219.886 919.754 217.811 920.349 215.968C920.944 214.105 921.78 212.52 922.855 211.214C923.931 209.889 925.208 208.881 926.687 208.189C928.185 207.479 929.856 207.123 931.7 207.123C933.159 207.123 934.494 207.335 935.704 207.757C936.914 208.18 937.951 208.852 938.815 209.774C939.699 210.696 940.371 211.915 940.832 213.432C941.312 214.95 941.552 216.803 941.552 218.992V238.87H933.198V218.964C933.198 217.581 933.006 216.505 932.621 215.737C932.237 214.969 931.671 214.431 930.922 214.124C930.192 213.797 929.289 213.634 928.214 213.634C927.1 213.634 926.13 213.855 925.304 214.297C924.497 214.738 923.825 215.353 923.287 216.14C922.769 216.909 922.375 217.811 922.106 218.848C921.837 219.886 921.703 220.999 921.703 222.19ZM961.028 239.447C958.608 239.447 956.438 239.062 954.517 238.294C952.597 237.507 950.964 236.422 949.62 235.039C948.294 233.656 947.277 232.052 946.566 230.228C945.855 228.384 945.5 226.425 945.5 224.351V223.199C945.5 220.836 945.836 218.676 946.508 216.717C947.181 214.758 948.141 213.058 949.389 211.617C950.657 210.177 952.193 209.073 953.999 208.305C955.804 207.517 957.84 207.123 960.106 207.123C962.315 207.123 964.274 207.488 965.983 208.218C967.692 208.948 969.123 209.985 970.275 211.329C971.447 212.674 972.33 214.287 972.926 216.169C973.521 218.032 973.819 220.106 973.819 222.392V225.849H949.044V220.318H965.666V219.684C965.666 218.532 965.455 217.504 965.032 216.601C964.629 215.68 964.014 214.95 963.189 214.412C962.363 213.874 961.306 213.605 960.02 213.605C958.925 213.605 957.984 213.845 957.196 214.326C956.409 214.806 955.766 215.478 955.266 216.342C954.786 217.206 954.421 218.224 954.171 219.396C953.941 220.548 953.826 221.816 953.826 223.199V224.351C953.826 225.599 953.999 226.752 954.344 227.808C954.709 228.864 955.218 229.777 955.871 230.545C956.543 231.313 957.35 231.908 958.291 232.331C959.251 232.753 960.336 232.965 961.546 232.965C963.044 232.965 964.437 232.677 965.724 232.1C967.03 231.505 968.153 230.612 969.094 229.421L973.128 233.8C972.475 234.741 971.581 235.644 970.448 236.508C969.334 237.372 967.99 238.083 966.415 238.64C964.84 239.178 963.044 239.447 961.028 239.447ZM985.66 214.498V238.87H977.364V207.7H985.171L985.66 214.498ZM995.052 207.498L994.908 215.19C994.505 215.132 994.015 215.084 993.439 215.046C992.882 214.988 992.373 214.959 991.912 214.959C990.74 214.959 989.722 215.113 988.858 215.42C988.013 215.708 987.302 216.14 986.726 216.717C986.169 217.293 985.747 217.994 985.459 218.82C985.19 219.645 985.036 220.587 984.998 221.643L983.327 221.124C983.327 219.108 983.529 217.254 983.932 215.564C984.335 213.855 984.921 212.367 985.689 211.099C986.477 209.831 987.437 208.852 988.57 208.16C989.703 207.469 991 207.123 992.459 207.123C992.92 207.123 993.391 207.162 993.871 207.239C994.351 207.296 994.745 207.383 995.052 207.498ZM1007.56 235.356L1015.82 207.7H1024.73L1012.19 243.566C1011.93 244.354 1011.56 245.199 1011.1 246.101C1010.66 247.004 1010.05 247.859 1009.28 248.665C1008.54 249.491 1007.58 250.163 1006.43 250.682C1005.3 251.201 1003.91 251.46 1002.26 251.46C1001.47 251.46 1000.82 251.412 1000.33 251.316C999.826 251.22 999.23 251.085 998.539 250.912V244.834C998.75 244.834 998.971 244.834 999.202 244.834C999.432 244.853 999.653 244.863 999.864 244.863C1000.96 244.863 1001.85 244.738 1002.54 244.488C1003.23 244.238 1003.79 243.854 1004.21 243.336C1004.64 242.836 1004.97 242.183 1005.22 241.377L1007.56 235.356ZM1004.1 207.7L1010.87 230.285L1012.05 239.072L1006.4 239.677L995.197 207.7H1004.1ZM1046.97 216.429L1055.03 211.214C1056.23 210.427 1057.02 209.668 1057.43 208.938C1057.83 208.208 1058.03 207.392 1058.03 206.49C1058.03 205.587 1057.69 204.751 1057.02 203.983C1056.35 203.196 1055.41 202.802 1054.2 202.802C1053.34 202.802 1052.61 203.004 1052.01 203.407C1051.41 203.791 1050.96 204.31 1050.66 204.963C1050.37 205.616 1050.22 206.346 1050.22 207.152C1050.22 208.016 1050.45 208.9 1050.92 209.803C1051.38 210.686 1052 211.627 1052.79 212.626C1053.58 213.605 1054.45 214.671 1055.41 215.824L1075.2 238.87H1065.78L1049.65 220.202C1048.28 218.512 1047.09 216.966 1046.08 215.564C1045.06 214.143 1044.26 212.76 1043.68 211.416C1043.11 210.071 1042.82 208.689 1042.82 207.267C1042.82 205.078 1043.29 203.167 1044.23 201.534C1045.17 199.883 1046.5 198.606 1048.21 197.703C1049.92 196.781 1051.92 196.32 1054.23 196.32C1056.4 196.32 1058.28 196.771 1059.87 197.674C1061.47 198.558 1062.7 199.729 1063.56 201.189C1064.45 202.648 1064.89 204.252 1064.89 206C1064.89 207.306 1064.65 208.516 1064.17 209.63C1063.69 210.724 1063.02 211.742 1062.18 212.683C1061.33 213.605 1060.36 214.46 1059.27 215.247L1050.08 221.787C1049.37 222.44 1048.83 223.083 1048.47 223.717C1048.1 224.351 1047.85 224.956 1047.72 225.532C1047.58 226.089 1047.52 226.627 1047.52 227.145C1047.52 228.259 1047.76 229.258 1048.24 230.141C1048.72 231.025 1049.39 231.716 1050.25 232.216C1051.12 232.715 1052.13 232.965 1053.28 232.965C1054.85 232.965 1056.38 232.619 1057.86 231.928C1059.34 231.236 1060.66 230.247 1061.83 228.96C1063.01 227.654 1063.94 226.108 1064.63 224.322C1065.32 222.536 1065.67 220.567 1065.67 218.416H1072.69C1072.69 220.567 1072.48 222.613 1072.06 224.553C1071.64 226.473 1070.96 228.259 1070.02 229.911C1069.07 231.543 1067.83 232.993 1066.27 234.261C1066.16 234.357 1065.99 234.501 1065.78 234.693C1065.59 234.866 1065.43 235 1065.29 235.096C1063.45 236.575 1061.53 237.68 1059.53 238.409C1057.53 239.12 1055.3 239.475 1052.85 239.475C1050.04 239.475 1047.61 238.966 1045.56 237.949C1043.52 236.931 1041.95 235.529 1040.83 233.742C1039.74 231.956 1039.19 229.911 1039.19 227.606C1039.19 225.916 1039.52 224.447 1040.17 223.199C1040.84 221.931 1041.76 220.759 1042.94 219.684C1044.11 218.608 1045.45 217.523 1046.97 216.429ZM1113.89 227.894C1113.89 227.145 1113.78 226.473 1113.55 225.878C1113.34 225.263 1112.93 224.706 1112.34 224.207C1111.74 223.688 1110.91 223.179 1109.83 222.68C1108.76 222.181 1107.36 221.662 1105.65 221.124C1103.75 220.51 1101.95 219.818 1100.24 219.05C1098.55 218.282 1097.05 217.389 1095.74 216.371C1094.46 215.334 1093.44 214.133 1092.69 212.77C1091.96 211.406 1091.6 209.822 1091.6 208.016C1091.6 206.269 1091.98 204.684 1092.75 203.263C1093.52 201.823 1094.59 200.593 1095.97 199.576C1097.36 198.538 1098.99 197.741 1100.87 197.184C1102.77 196.627 1104.86 196.349 1107.12 196.349C1110.22 196.349 1112.91 196.906 1115.22 198.02C1117.52 199.134 1119.31 200.661 1120.58 202.6C1121.86 204.54 1122.51 206.758 1122.51 209.255H1113.92C1113.92 208.026 1113.66 206.951 1113.14 206.029C1112.64 205.088 1111.88 204.348 1110.84 203.81C1109.82 203.273 1108.53 203.004 1106.98 203.004C1105.48 203.004 1104.23 203.234 1103.23 203.695C1102.24 204.137 1101.49 204.742 1100.99 205.51C1100.49 206.259 1100.24 207.104 1100.24 208.045C1100.24 208.756 1100.41 209.399 1100.76 209.975C1101.12 210.552 1101.66 211.089 1102.37 211.589C1103.08 212.088 1103.95 212.559 1104.99 213C1106.03 213.442 1107.23 213.874 1108.59 214.297C1110.88 214.988 1112.88 215.766 1114.61 216.63C1116.36 217.494 1117.82 218.464 1118.99 219.54C1120.16 220.615 1121.05 221.835 1121.64 223.199C1122.24 224.562 1122.54 226.108 1122.54 227.837C1122.54 229.661 1122.18 231.294 1121.47 232.734C1120.76 234.175 1119.73 235.394 1118.39 236.393C1117.04 237.392 1115.44 238.15 1113.58 238.669C1111.71 239.187 1109.63 239.447 1107.32 239.447C1105.25 239.447 1103.21 239.178 1101.19 238.64C1099.17 238.083 1097.34 237.248 1095.69 236.134C1094.05 235.02 1092.75 233.598 1091.77 231.87C1090.79 230.141 1090.3 228.096 1090.3 225.734H1098.97C1098.97 227.04 1099.17 228.144 1099.58 229.047C1099.98 229.949 1100.55 230.679 1101.28 231.236C1102.02 231.793 1102.91 232.196 1103.93 232.446C1104.96 232.696 1106.1 232.821 1107.32 232.821C1108.82 232.821 1110.05 232.609 1111.01 232.187C1111.99 231.764 1112.71 231.179 1113.17 230.43C1113.65 229.68 1113.89 228.835 1113.89 227.894ZM1135.01 213.692V250.855H1126.71V207.7H1134.41L1135.01 213.692ZM1154.74 222.939V223.544C1154.74 225.811 1154.48 227.914 1153.94 229.853C1153.42 231.793 1152.65 233.483 1151.63 234.924C1150.62 236.345 1149.35 237.459 1147.83 238.265C1146.33 239.053 1144.6 239.447 1142.65 239.447C1140.74 239.447 1139.09 239.062 1137.69 238.294C1136.29 237.526 1135.11 236.451 1134.15 235.068C1133.21 233.666 1132.45 232.043 1131.87 230.199C1131.29 228.355 1130.85 226.377 1130.55 224.264V222.68C1130.85 220.414 1131.29 218.339 1131.87 216.457C1132.45 214.556 1133.21 212.914 1134.15 211.531C1135.11 210.129 1136.28 209.044 1137.66 208.276C1139.06 207.507 1140.71 207.123 1142.59 207.123C1144.57 207.123 1146.3 207.498 1147.8 208.247C1149.32 208.996 1150.59 210.071 1151.6 211.473C1152.64 212.875 1153.42 214.546 1153.94 216.486C1154.48 218.426 1154.74 220.577 1154.74 222.939ZM1146.42 223.544V222.939C1146.42 221.614 1146.3 220.395 1146.07 219.281C1145.86 218.147 1145.52 217.158 1145.04 216.313C1144.58 215.468 1143.96 214.815 1143.19 214.354C1142.44 213.874 1141.53 213.634 1140.46 213.634C1139.32 213.634 1138.35 213.817 1137.55 214.181C1136.76 214.546 1136.12 215.075 1135.62 215.766C1135.12 216.457 1134.74 217.283 1134.49 218.243C1134.24 219.204 1134.09 220.289 1134.03 221.499V225.503C1134.13 226.924 1134.4 228.202 1134.84 229.335C1135.28 230.449 1135.96 231.332 1136.88 231.985C1137.81 232.638 1139.02 232.965 1140.51 232.965C1141.61 232.965 1142.53 232.725 1143.28 232.244C1144.03 231.745 1144.63 231.063 1145.09 230.199C1145.57 229.335 1145.91 228.336 1146.1 227.203C1146.31 226.07 1146.42 224.85 1146.42 223.544ZM1175.55 231.841V217.955C1175.55 216.957 1175.38 216.102 1175.06 215.391C1174.73 214.662 1174.22 214.095 1173.53 213.692C1172.86 213.288 1171.98 213.087 1170.91 213.087C1169.99 213.087 1169.19 213.25 1168.52 213.576C1167.84 213.884 1167.33 214.335 1166.96 214.93C1166.6 215.507 1166.41 216.188 1166.41 216.976H1158.12C1158.12 215.651 1158.42 214.393 1159.04 213.202C1159.65 212.011 1160.55 210.964 1161.72 210.062C1162.89 209.14 1164.28 208.42 1165.9 207.901C1167.53 207.383 1169.35 207.123 1171.37 207.123C1173.79 207.123 1175.94 207.527 1177.82 208.333C1179.7 209.14 1181.18 210.35 1182.26 211.963C1183.35 213.576 1183.9 215.593 1183.9 218.013V231.351C1183.9 233.061 1184.01 234.463 1184.22 235.557C1184.43 236.633 1184.74 237.574 1185.14 238.381V238.87H1176.76C1176.35 238.025 1176.05 236.969 1175.83 235.701C1175.64 234.415 1175.55 233.128 1175.55 231.841ZM1176.64 219.886L1176.7 224.581H1172.06C1170.97 224.581 1170.01 224.706 1169.21 224.956C1168.4 225.206 1167.74 225.561 1167.22 226.022C1166.7 226.464 1166.32 226.982 1166.07 227.577C1165.84 228.173 1165.72 228.826 1165.72 229.536C1165.72 230.247 1165.89 230.89 1166.21 231.467C1166.54 232.024 1167.01 232.465 1167.62 232.792C1168.24 233.099 1168.96 233.253 1169.78 233.253C1171.03 233.253 1172.12 233.003 1173.04 232.504C1173.96 232.004 1174.67 231.39 1175.17 230.66C1175.69 229.93 1175.96 229.239 1175.98 228.586L1178.17 232.1C1177.86 232.888 1177.44 233.704 1176.9 234.549C1176.38 235.394 1175.72 236.191 1174.91 236.94C1174.11 237.67 1173.14 238.275 1172 238.755C1170.87 239.216 1169.52 239.447 1167.97 239.447C1165.99 239.447 1164.2 239.053 1162.58 238.265C1160.99 237.459 1159.72 236.354 1158.78 234.952C1157.86 233.531 1157.4 231.918 1157.4 230.113C1157.4 228.48 1157.7 227.03 1158.32 225.763C1158.93 224.495 1159.84 223.429 1161.03 222.565C1162.24 221.681 1163.74 221.019 1165.55 220.577C1167.35 220.116 1169.45 219.886 1171.83 219.886H1176.64ZM1197.41 214.498V238.87H1189.12V207.7H1196.92L1197.41 214.498ZM1206.8 207.498L1206.66 215.19C1206.26 215.132 1205.77 215.084 1205.19 215.046C1204.63 214.988 1204.13 214.959 1203.66 214.959C1202.49 214.959 1201.47 215.113 1200.61 215.42C1199.77 215.708 1199.05 216.14 1198.48 216.717C1197.92 217.293 1197.5 217.994 1197.21 218.82C1196.94 219.645 1196.79 220.587 1196.75 221.643L1195.08 221.124C1195.08 219.108 1195.28 217.254 1195.68 215.564C1196.09 213.855 1196.67 212.367 1197.44 211.099C1198.23 209.831 1199.19 208.852 1200.32 208.16C1201.46 207.469 1202.75 207.123 1204.21 207.123C1204.67 207.123 1205.14 207.162 1205.62 207.239C1206.1 207.296 1206.5 207.383 1206.8 207.498ZM1223.31 239.447C1220.89 239.447 1218.72 239.062 1216.8 238.294C1214.88 237.507 1213.25 236.422 1211.9 235.039C1210.58 233.656 1209.56 232.052 1208.85 230.228C1208.14 228.384 1207.79 226.425 1207.79 224.351V223.199C1207.79 220.836 1208.12 218.676 1208.79 216.717C1209.47 214.758 1210.43 213.058 1211.67 211.617C1212.94 210.177 1214.48 209.073 1216.28 208.305C1218.09 207.517 1220.12 207.123 1222.39 207.123C1224.6 207.123 1226.56 207.488 1228.27 208.218C1229.98 208.948 1231.41 209.985 1232.56 211.329C1233.73 212.674 1234.62 214.287 1235.21 216.169C1235.81 218.032 1236.1 220.106 1236.1 222.392V225.849H1211.33V220.318H1227.95V219.684C1227.95 218.532 1227.74 217.504 1227.32 216.601C1226.91 215.68 1226.3 214.95 1225.47 214.412C1224.65 213.874 1223.59 213.605 1222.3 213.605C1221.21 213.605 1220.27 213.845 1219.48 214.326C1218.69 214.806 1218.05 215.478 1217.55 216.342C1217.07 217.206 1216.71 218.224 1216.46 219.396C1216.23 220.548 1216.11 221.816 1216.11 223.199V224.351C1216.11 225.599 1216.28 226.752 1216.63 227.808C1216.99 228.864 1217.5 229.777 1218.16 230.545C1218.83 231.313 1219.63 231.908 1220.58 232.331C1221.54 232.753 1222.62 232.965 1223.83 232.965C1225.33 232.965 1226.72 232.677 1228.01 232.1C1229.31 231.505 1230.44 230.612 1231.38 229.421L1235.41 233.8C1234.76 234.741 1233.87 235.644 1232.73 236.508C1231.62 237.372 1230.27 238.083 1228.7 238.64C1227.13 239.178 1225.33 239.447 1223.31 239.447ZM1256.5 230.257C1256.5 229.661 1256.33 229.124 1255.98 228.643C1255.64 228.163 1254.99 227.721 1254.05 227.318C1253.13 226.896 1251.8 226.512 1250.05 226.166C1248.47 225.82 1247 225.388 1245.64 224.869C1244.3 224.332 1243.12 223.688 1242.13 222.939C1241.15 222.19 1240.38 221.307 1239.82 220.289C1239.26 219.252 1238.99 218.071 1238.99 216.745C1238.99 215.439 1239.26 214.21 1239.82 213.058C1240.4 211.906 1241.21 210.888 1242.27 210.004C1243.35 209.102 1244.65 208.401 1246.19 207.901C1247.74 207.383 1249.49 207.123 1251.43 207.123C1254.14 207.123 1256.46 207.555 1258.4 208.42C1260.36 209.284 1261.86 210.475 1262.9 211.992C1263.95 213.49 1264.48 215.199 1264.48 217.12H1256.18C1256.18 216.313 1256.01 215.593 1255.67 214.959C1255.34 214.306 1254.82 213.797 1254.11 213.432C1253.42 213.048 1252.52 212.856 1251.4 212.856C1250.48 212.856 1249.68 213.02 1249.01 213.346C1248.34 213.653 1247.82 214.076 1247.46 214.614C1247.11 215.132 1246.94 215.708 1246.94 216.342C1246.94 216.822 1247.03 217.254 1247.23 217.638C1247.44 218.003 1247.77 218.339 1248.23 218.647C1248.69 218.954 1249.29 219.242 1250.02 219.511C1250.77 219.761 1251.69 219.991 1252.79 220.202C1255.03 220.663 1257.04 221.268 1258.81 222.017C1260.57 222.747 1261.98 223.746 1263.01 225.013C1264.05 226.262 1264.57 227.904 1264.57 229.94C1264.57 231.323 1264.26 232.59 1263.65 233.742C1263.03 234.895 1262.15 235.903 1261 236.767C1259.84 237.612 1258.46 238.275 1256.85 238.755C1255.25 239.216 1253.46 239.447 1251.46 239.447C1248.56 239.447 1246.1 238.928 1244.09 237.891C1242.09 236.854 1240.57 235.538 1239.53 233.944C1238.52 232.331 1238.01 230.679 1238.01 228.989H1245.87C1245.91 230.122 1246.2 231.034 1246.74 231.726C1247.29 232.417 1247.99 232.917 1248.84 233.224C1249.7 233.531 1250.63 233.685 1251.63 233.685C1252.71 233.685 1253.6 233.541 1254.31 233.253C1255.02 232.945 1255.56 232.542 1255.93 232.043C1256.31 231.524 1256.5 230.929 1256.5 230.257ZM1299.14 223.919H1288.45V217.178H1299.14C1300.79 217.178 1302.14 216.909 1303.17 216.371C1304.21 215.814 1304.97 215.046 1305.45 214.066C1305.93 213.087 1306.17 211.982 1306.17 210.753C1306.17 209.505 1305.93 208.343 1305.45 207.267C1304.97 206.192 1304.21 205.328 1303.17 204.675C1302.14 204.022 1300.79 203.695 1299.14 203.695H1291.45V238.87H1282.81V196.925H1299.14C1302.42 196.925 1305.24 197.52 1307.58 198.711C1309.94 199.883 1311.75 201.506 1313 203.58C1314.25 205.654 1314.87 208.026 1314.87 210.696C1314.87 213.404 1314.25 215.747 1313 217.725C1311.75 219.703 1309.94 221.23 1307.58 222.305C1305.24 223.381 1302.42 223.919 1299.14 223.919ZM1335.61 231.841V217.955C1335.61 216.957 1335.45 216.102 1335.12 215.391C1334.8 214.662 1334.29 214.095 1333.6 213.692C1332.92 213.288 1332.05 213.087 1330.98 213.087C1330.05 213.087 1329.26 213.25 1328.58 213.576C1327.91 213.884 1327.39 214.335 1327.03 214.93C1326.66 215.507 1326.48 216.188 1326.48 216.976H1318.18C1318.18 215.651 1318.49 214.393 1319.11 213.202C1319.72 212.011 1320.61 210.964 1321.79 210.062C1322.96 209.14 1324.35 208.42 1325.96 207.901C1327.6 207.383 1329.42 207.123 1331.44 207.123C1333.86 207.123 1336.01 207.527 1337.89 208.333C1339.77 209.14 1341.25 210.35 1342.33 211.963C1343.42 213.576 1343.97 215.593 1343.97 218.013V231.351C1343.97 233.061 1344.07 234.463 1344.28 235.557C1344.5 236.633 1344.8 237.574 1345.21 238.381V238.87H1336.82C1336.42 238.025 1336.11 236.969 1335.9 235.701C1335.71 234.415 1335.61 233.128 1335.61 231.841ZM1336.71 219.886L1336.77 224.581H1332.13C1331.03 224.581 1330.08 224.706 1329.28 224.956C1328.47 225.206 1327.81 225.561 1327.29 226.022C1326.77 226.464 1326.39 226.982 1326.14 227.577C1325.9 228.173 1325.79 228.826 1325.79 229.536C1325.79 230.247 1325.95 230.89 1326.28 231.467C1326.61 232.024 1327.08 232.465 1327.69 232.792C1328.31 233.099 1329.03 233.253 1329.85 233.253C1331.1 233.253 1332.19 233.003 1333.11 232.504C1334.03 232.004 1334.74 231.39 1335.24 230.66C1335.76 229.93 1336.03 229.239 1336.05 228.586L1338.23 232.1C1337.93 232.888 1337.51 233.704 1336.97 234.549C1336.45 235.394 1335.79 236.191 1334.98 236.94C1334.17 237.67 1333.2 238.275 1332.07 238.755C1330.94 239.216 1329.59 239.447 1328.04 239.447C1326.06 239.447 1324.26 239.053 1322.65 238.265C1321.06 237.459 1319.79 236.354 1318.85 234.952C1317.92 233.531 1317.46 231.918 1317.46 230.113C1317.46 228.48 1317.77 227.03 1318.39 225.763C1319 224.495 1319.9 223.429 1321.09 222.565C1322.3 221.681 1323.81 221.019 1325.62 220.577C1327.42 220.116 1329.52 219.886 1331.9 219.886H1336.71ZM1357.48 214.498V238.87H1349.18V207.7H1356.99L1357.48 214.498ZM1366.87 207.498L1366.73 215.19C1366.32 215.132 1365.83 215.084 1365.26 215.046C1364.7 214.988 1364.19 214.959 1363.73 214.959C1362.56 214.959 1361.54 215.113 1360.68 215.42C1359.83 215.708 1359.12 216.14 1358.55 216.717C1357.99 217.293 1357.57 217.994 1357.28 218.82C1357.01 219.645 1356.86 220.587 1356.82 221.643L1355.15 221.124C1355.15 219.108 1355.35 217.254 1355.75 215.564C1356.16 213.855 1356.74 212.367 1357.51 211.099C1358.3 209.831 1359.26 208.852 1360.39 208.16C1361.52 207.469 1362.82 207.123 1364.28 207.123C1364.74 207.123 1365.21 207.162 1365.69 207.239C1366.17 207.296 1366.56 207.383 1366.87 207.498ZM1386.32 207.7V213.576H1368.17V207.7H1386.32ZM1372.66 200.008H1380.96V229.479C1380.96 230.381 1381.08 231.073 1381.31 231.553C1381.56 232.033 1381.92 232.369 1382.4 232.561C1382.88 232.734 1383.49 232.821 1384.22 232.821C1384.73 232.821 1385.2 232.801 1385.6 232.763C1386.02 232.705 1386.38 232.648 1386.66 232.59L1386.69 238.698C1385.98 238.928 1385.21 239.11 1384.39 239.245C1383.56 239.379 1382.65 239.447 1381.65 239.447C1379.83 239.447 1378.23 239.149 1376.87 238.554C1375.53 237.939 1374.49 236.959 1373.76 235.615C1373.03 234.271 1372.66 232.504 1372.66 230.314V200.008ZM1406.72 230.257C1406.72 229.661 1406.54 229.124 1406.2 228.643C1405.85 228.163 1405.21 227.721 1404.27 227.318C1403.35 226.896 1402.01 226.512 1400.26 226.166C1398.69 225.82 1397.22 225.388 1395.86 224.869C1394.51 224.332 1393.34 223.688 1392.34 222.939C1391.36 222.19 1390.59 221.307 1390.04 220.289C1389.48 219.252 1389.2 218.071 1389.2 216.745C1389.2 215.439 1389.48 214.21 1390.04 213.058C1390.61 211.906 1391.43 210.888 1392.48 210.004C1393.56 209.102 1394.87 208.401 1396.4 207.901C1397.96 207.383 1399.71 207.123 1401.65 207.123C1404.35 207.123 1406.68 207.555 1408.62 208.42C1410.58 209.284 1412.07 210.475 1413.11 211.992C1414.17 213.49 1414.7 215.199 1414.7 217.12H1406.4C1406.4 216.313 1406.23 215.593 1405.88 214.959C1405.55 214.306 1405.04 213.797 1404.33 213.432C1403.63 213.048 1402.73 212.856 1401.62 212.856C1400.7 212.856 1399.9 213.02 1399.23 213.346C1398.55 213.653 1398.04 214.076 1397.67 214.614C1397.32 215.132 1397.15 215.708 1397.15 216.342C1397.15 216.822 1397.25 217.254 1397.44 217.638C1397.65 218.003 1397.99 218.339 1398.45 218.647C1398.91 218.954 1399.5 219.242 1400.23 219.511C1400.98 219.761 1401.91 219.991 1403 220.202C1405.25 220.663 1407.25 221.268 1409.02 222.017C1410.79 222.747 1412.19 223.746 1413.23 225.013C1414.26 226.262 1414.78 227.904 1414.78 229.94C1414.78 231.323 1414.48 232.59 1413.86 233.742C1413.25 234.895 1412.36 235.903 1411.21 236.767C1410.06 237.612 1408.68 238.275 1407.06 238.755C1405.47 239.216 1403.67 239.447 1401.67 239.447C1398.77 239.447 1396.32 238.928 1394.3 237.891C1392.3 236.854 1390.79 235.538 1389.75 233.944C1388.73 232.331 1388.22 230.679 1388.22 228.989H1396.09C1396.12 230.122 1396.41 231.034 1396.95 231.726C1397.51 232.417 1398.21 232.917 1399.05 233.224C1399.92 233.531 1400.85 233.685 1401.85 233.685C1402.92 233.685 1403.82 233.541 1404.53 233.253C1405.24 232.945 1405.78 232.542 1406.14 232.043C1406.52 231.524 1406.72 230.929 1406.72 230.257Z" fill="black"/>
<path d="M118.335 202.485C112.868 202.485 108.085 201.323 103.985 199C100.022 196.813 98.04 192.918 98.04 187.315C98.04 183.762 98.9283 179.798 100.705 175.425C103.165 178.158 105.42 180.072 107.47 181.165C109.657 182.258 111.98 182.805 114.44 182.805C121.273 182.805 126.33 178.978 129.61 171.325C133.027 163.672 134.735 155.198 134.735 145.905C134.735 128.548 128.243 119.87 115.26 119.87C111.57 119.87 108.427 120.075 105.83 120.485L89.02 199H59.5L87.38 68.62L117.72 64.52L108.085 110.03H109.315C114.508 110.03 119.36 108.39 123.87 105.11C128.38 101.693 132.002 97.4567 134.735 92.4C137.468 87.2067 138.835 82.0133 138.835 76.82C138.835 70.5333 136.58 65.2717 132.07 61.035C127.697 56.7983 120.932 54.68 111.775 54.68C103.438 54.68 95.3067 56.5933 87.38 60.42C79.4533 64.11 72.9617 69.7133 67.905 77.23C62.985 84.7467 60.525 93.835 60.525 104.495C60.525 109.552 61.0033 113.105 61.96 115.155C62.9167 117.068 63.395 118.162 63.395 118.435C56.1517 118.435 50.685 117 46.995 114.13C43.305 111.123 41.46 106.272 41.46 99.575C41.46 90.2817 44.945 81.4667 51.915 73.13C58.885 64.7933 68.11 58.0967 79.59 53.04C91.07 47.8467 103.165 45.25 115.875 45.25C125.442 45.25 133.505 46.7533 140.065 49.76C146.625 52.7667 151.477 56.73 154.62 61.65C157.9 66.57 159.54 71.9683 159.54 77.845C159.54 84.1317 157.763 90.2133 154.21 96.09C150.657 101.967 145.6 106.75 139.04 110.44C147.24 111.943 153.322 115.77 157.285 121.92C161.248 127.933 163.23 135.108 163.23 143.445C163.23 151.235 161.727 159.708 158.72 168.865C155.85 178.022 150.998 185.948 144.165 192.645C137.468 199.205 128.858 202.485 118.335 202.485Z" fill="black"/>
<path d="M180.627 113.866L210.967 109.766L196.412 178.236C202.972 177.69 208.985 174.82 214.452 169.626C220.055 164.433 224.429 158.01 227.572 150.356C230.715 142.703 232.287 135.186 232.287 127.806C232.287 119.606 230.169 112.91 225.932 107.716C221.695 102.523 215.34 99.9264 206.867 99.9264C190.194 99.9264 177.142 104.3 167.712 113.046C158.419 121.793 153.772 134.025 153.772 149.741C153.772 154.798 154.25 158.351 155.207 160.401C156.164 162.315 156.642 163.408 156.642 163.681C149.262 163.681 143.727 162.178 140.037 159.171C136.484 156.028 134.707 150.903 134.707 143.796C134.707 135.05 138.26 126.576 145.367 118.376C152.61 110.04 161.835 103.343 173.042 98.2864C184.249 93.0931 195.455 90.4964 206.662 90.4964C217.459 90.4964 226.479 92.3414 233.722 96.0314C240.965 99.7214 246.295 104.641 249.712 110.791C253.265 116.805 255.042 123.501 255.042 130.881C255.042 139.765 252.582 148.443 247.662 156.916C242.879 165.39 235.977 172.36 226.957 177.826C217.937 183.156 207.55 185.821 195.797 185.821H194.772L182.267 244.246H152.747L180.627 113.866Z" fill="#943F00"/>
<circle cx="145" cy="145" r="137.5" stroke="black" stroke-width="15"/>
</svg>
